<?xml version="1.0" standalone="no"?>
<!DOCTYPE svg PUBLIC "-//W3C//DTD SVG 20010904//EN"
 "http://www.w3.org/TR/2001/REC-SVG-20010904/DTD/svg10.dtd">
<svg version="1.0" xmlns="http://www.w3.org/2000/svg"
 width="16.000000pt" height="16.000000pt" viewBox="0 0 16.000000 16.000000"
 preserveAspectRatio="xMidYMid meet">
<metadata>
Created by potrace 1.11, written by Peter Selinger 2001-2013
</metadata>
<g transform="translate(0.000000,16.000000) scale(0.006250,-0.006250)"
fill="#000000" stroke="none">
<path d="M0 2520 c0 -33 3 -40 20 -40 28 0 38 -25 46 -126 l8 -89 11 60 c7 33
23 86 38 117 35 77 76 99 190 98 110 0 131 -3 150 -18 18 -15 32 -10 47 19 10
19 5 19 -250 19 l-260 0 0 -40z"/>
<path d="M618 2529 c-10 -17 -22 -28 -27 -25 -5 4 -23 -13 -40 -36 -33 -45
-37 -43 -21 12 9 33 8 34 -7 15 -16 -21 -82 -157 -154 -320 -5 -11 -25 -76
-45 -145 -19 -68 -38 -129 -41 -134 -3 -5 -45 -6 -98 -2 -121 8 -185 0 -185
-25 0 -18 10 -19 141 -19 108 0 140 -3 137 -12 -3 -10 -43 -14 -141 -16 l-137
-3 0 -77 0 -77 116 3 116 3 -7 -33 c-4 -18 -9 -36 -12 -40 -7 -14 -68 -9 -90
7 -20 14 -22 14 -29 -7 -4 -14 -1 -25 9 -33 73 -53 97 -79 97 -106 0 -15 -4
-30 -9 -34 -5 -3 -6 -17 -2 -33 9 -31 0 -110 -22 -197 -9 -33 -21 -82 -29
-110 -7 -27 -11 -55 -10 -62 1 -6 -2 -14 -8 -18 -5 -3 -10 -21 -10 -40 0 -19
-5 -37 -10 -40 -6 -3 -10 -15 -10 -26 0 -24 -5 -24 -38 -1 -15 10 -33 22 -40
26 -9 6 -12 -89 -12 -458 l0 -466 1280 0 1280 0 0 268 -1 267 -25 19 c-22 15
-28 16 -35 5 -6 -11 -13 -11 -26 -3 -25 15 -23 40 2 36 11 -1 35 -4 53 -6 l32
-4 0 99 0 99 -94 0 -94 0 -31 35 c-20 23 -31 46 -31 65 0 30 -24 100 -62 179
-27 56 -36 140 -17 152 20 13 61 1 77 -22 24 -34 47 -20 44 26 -6 77 38 140
114 165 27 9 34 17 34 38 0 19 -7 30 -22 37 -23 10 -23 11 -19 204 4 187 3
194 -15 187 -11 -5 -47 -10 -81 -13 -65 -6 -68 -4 -64 39 2 21 -33 41 -59 33
-11 -3 -43 -6 -72 -7 -29 0 -47 -3 -41 -5 15 -6 17 -30 3 -35 -6 -2 5 -27 24
-55 53 -80 51 -76 27 -64 -12 7 -27 21 -34 31 -6 11 -18 20 -26 20 -12 0 -12
-3 -3 -12 7 -7 12 -23 12 -36 0 -13 16 -46 36 -73 31 -42 33 -49 17 -49 -17 0
-53 -45 -42 -53 2 -2 16 -11 32 -20 15 -10 27 -23 27 -29 0 -6 -11 -1 -25 12
-24 22 -25 22 -25 4 0 -11 9 -38 21 -59 12 -22 28 -53 37 -70 8 -16 25 -43 36
-60 17 -24 30 -95 18 -95 -13 0 -52 35 -52 47 0 8 -5 11 -11 8 -11 -7 -44 31
-44 51 0 6 -7 19 -14 28 -8 9 -16 29 -17 44 -2 15 -6 47 -9 70 -4 30 -3 42 4
37 15 -8 14 -3 -4 31 -9 17 -11 30 -5 32 13 5 13 39 0 47 -5 3 -10 16 -10 28
0 13 -6 31 -13 42 -22 32 -28 68 -11 61 16 -6 17 -2 5 22 -5 9 -19 51 -32 92
-12 41 -29 85 -37 98 -8 12 -11 22 -7 22 4 0 2 6 -4 13 -6 8 -8 17 -5 20 3 3
-6 32 -22 64 -15 32 -28 66 -29 75 -1 9 -17 36 -37 60 -19 24 -61 83 -93 132
-31 49 -78 111 -102 138 l-46 48 -516 0 -516 0 -17 -31z m1752 -899 c0 -23
-25 -27 -33 -6 -7 16 1 26 20 26 7 0 13 -9 13 -20z m-125 -200 c3 -6 -1 -7 -9
-4 -18 7 -21 14 -7 14 6 0 13 -4 16 -10z m-2192 -647 c9 -9 -13 -34 -24 -27
-14 8 -11 34 4 34 8 0 17 -3 20 -7z m2336 -66 c17 -7 29 -16 25 -19 -3 -4 2
-18 11 -32 17 -26 17 -26 -6 -23 -13 2 -25 9 -27 15 -2 7 -8 10 -13 6 -16 -9
-33 7 -18 17 11 7 9 10 -8 15 -25 7 -32 34 -9 34 7 0 28 -6 45 -13z m-6 -81
c4 -10 1 -13 -9 -9 -15 6 -19 23 -5 23 5 0 11 -7 14 -14z m57 -46 c0 -15 -5
-12 -26 11 -19 22 -19 22 4 10 12 -6 22 -16 22 -21z"/>
<path d="M2288 2553 c7 -3 16 -2 19 1 4 3 -2 6 -13 5 -11 0 -14 -3 -6 -6z"/>
<path d="M2418 2553 c7 -3 16 -2 19 1 4 3 -2 6 -13 5 -11 0 -14 -3 -6 -6z"/>
<path d="M2503 2553 c-23 -9 -13 -18 22 -20 25 -1 35 2 35 13 0 14 -31 18 -57
7z"/>
<path d="M2125 1670 c3 -5 8 -10 11 -10 2 0 4 5 4 10 0 6 -5 10 -11 10 -5 0
-7 -4 -4 -10z"/>
<path d="M0 1615 c0 -10 10 -15 26 -15 22 0 25 2 14 15 -7 8 -19 15 -26 15 -8
0 -14 -7 -14 -15z"/>
<path d="M2460 1189 c0 -5 -5 -7 -10 -4 -12 7 -54 -4 -46 -12 3 -3 23 -6 44
-7 33 -2 38 1 34 16 -5 19 -22 25 -22 7z"/>
<path d="M0 963 c0 -19 5 -23 28 -22 16 0 21 3 12 6 -8 4 -20 13 -27 22 -11
14 -12 13 -13 -6z"/>
</g>
</svg>
