<?xml version="1.0" standalone="no"?>
<!DOCTYPE svg PUBLIC "-//W3C//DTD SVG 20010904//EN"
 "http://www.w3.org/TR/2001/REC-SVG-20010904/DTD/svg10.dtd">
<svg version="1.0" xmlns="http://www.w3.org/2000/svg"
 width="16.000000pt" height="16.000000pt" viewBox="0 0 16.000000 16.000000"
 preserveAspectRatio="xMidYMid meet">
<metadata>
Created by potrace 1.11, written by Peter Selinger 2001-2013
</metadata>
<g transform="translate(0.000000,16.000000) scale(0.001556,-0.001556)"
fill="#000000" stroke="none">
<path d="M6592 10028 c-33 -33 -2 -99 96 -202 32 -33 48 -56 37 -51 -11 4 -76
27 -144 51 -68 25 -159 63 -202 85 l-79 41 -107 -21 c-60 -12 -169 -26 -243
-31 -196 -15 -399 -79 -415 -131 -8 -25 -92 -54 -270 -95 -314 -73 -440 -105
-573 -148 -75 -24 -155 -48 -176 -53 -50 -11 -69 -38 -41 -59 16 -12 37 -14
95 -10 41 3 116 8 165 12 l90 6 -60 -40 c-33 -21 -109 -79 -170 -127 -67 -54
-133 -98 -170 -113 -37 -15 -87 -49 -136 -92 -85 -75 -202 -167 -318 -250
-236 -169 -488 -377 -661 -546 -342 -333 -406 -400 -519 -544 -68 -85 -145
-177 -171 -205 -60 -62 -131 -174 -182 -285 -52 -111 -179 -425 -211 -520 -32
-94 -98 -355 -131 -520 -14 -69 -42 -181 -61 -250 -20 -69 -49 -188 -65 -265
-53 -256 -71 -328 -140 -578 -92 -326 -147 -458 -314 -742 -118 -200 -145
-230 -370 -408 -166 -131 -314 -201 -749 -352 -122 -43 -138 -50 -135 -69 2
-17 20 -26 88 -47 182 -56 251 -60 420 -25 63 13 116 23 117 22 9 -8 -82 -100
-147 -148 -101 -75 -103 -91 -17 -108 56 -10 73 -9 153 10 57 14 123 39 182
71 51 27 94 49 96 49 2 0 4 -6 3 -13 -2 -64 34 -64 135 2 154 100 228 199 262
349 14 61 15 84 5 140 -6 37 -18 79 -26 94 -16 34 -9 47 80 152 40 47 76 106
113 185 30 64 69 142 85 174 45 87 96 214 149 377 l48 145 1 -190 c0 -121 6
-220 16 -275 8 -47 26 -148 40 -225 26 -149 161 -629 244 -868 27 -78 61 -178
75 -222 13 -44 51 -159 85 -255 68 -199 106 -341 163 -620 44 -217 57 -358 61
-679 2 -187 1 -202 -27 -316 -16 -66 -33 -125 -38 -132 -14 -17 1 -99 21 -116
9 -7 39 -22 66 -33 96 -37 512 -12 567 34 27 22 36 113 27 251 -24 354 -31
436 -45 557 -22 196 -5 733 30 924 13 74 35 194 47 265 12 72 24 132 26 134 3
5 65 -38 113 -78 31 -26 309 -186 461 -265 31 -16 67 -37 80 -46 l23 -18 -27
-166 c-31 -187 -42 -302 -57 -596 -14 -276 -19 -873 -9 -893 24 -41 222 -74
384 -63 194 13 223 32 206 133 -5 32 -9 133 -8 226 l0 167 38 11 c66 20 86 7
125 -77 18 -41 41 -77 50 -81 9 -3 40 0 68 7 91 23 179 75 268 158 l36 34 6
-43 c27 -231 25 -488 -4 -724 -6 -44 -10 -109 -10 -145 0 -44 -13 -117 -40
-223 -46 -177 -46 -172 25 -235 77 -68 125 -85 245 -90 103 -4 107 -3 137 22
22 18 37 45 48 81 8 30 18 55 20 55 3 0 18 -26 34 -58 35 -70 49 -82 98 -89
43 -5 91 21 127 70 30 41 29 166 -4 317 -21 94 -25 139 -23 250 2 226 57 430
201 759 l47 106 3 -75 c4 -106 40 -138 96 -88 32 30 205 444 221 531 l7 38 26
-38 c14 -21 73 -103 132 -183 149 -201 143 -186 131 -333 -17 -191 -19 -210
-26 -241 -7 -26 -6 -28 16 -21 39 12 200 111 255 157 53 45 126 125 144 159 6
10 18 19 27 19 9 0 25 8 36 17 20 18 20 17 14 -187 -5 -146 -12 -232 -26 -300
-11 -52 -23 -133 -27 -180 -4 -47 -22 -148 -41 -225 -20 -82 -32 -152 -29
-170 3 -16 2 -46 -3 -66 -10 -42 7 -92 36 -108 11 -5 69 -17 129 -26 l109 -16
70 26 c45 17 79 38 96 58 l26 31 7 -30 c9 -36 34 -64 56 -64 33 0 113 43 152
80 l38 38 0 249 c0 238 11 367 40 498 6 27 21 106 34 175 17 89 31 139 49 167
14 23 25 49 25 59 -1 11 21 69 49 129 74 161 169 401 186 470 14 55 47 301 62
470 14 151 67 430 90 475 69 131 215 531 296 810 17 58 66 215 109 350 43 135
86 271 94 303 14 46 22 60 44 68 83 31 314 318 416 516 129 251 198 635 166
918 -20 174 -71 290 -182 410 l-57 62 -2 125 -1 126 59 71 c224 265 323 525
323 840 0 252 -70 457 -220 645 -73 92 -125 137 -251 215 -121 76 -205 112
-271 119 -44 4 -50 2 -83 -31 -30 -30 -35 -42 -35 -80 0 -43 4 -49 90 -140 93
-98 124 -151 150 -253 24 -95 -15 -309 -69 -376 l-19 -22 -30 60 c-28 56 -94
128 -140 153 -11 6 -26 28 -33 48 -65 200 -228 425 -397 546 -32 23 -45 41
-52 71 -6 23 -17 62 -25 88 -8 26 -15 55 -15 65 0 10 -19 47 -43 83 -24 36
-69 104 -100 151 -71 107 -286 326 -412 419 -103 77 -214 142 -440 260 -88 46
-223 118 -301 161 -140 78 -186 93 -212 67z m423 -285 c216 -109 373 -200 474
-275 132 -98 325 -295 396 -405 32 -48 73 -111 91 -139 26 -38 74 -149 74
-170 0 -2 -26 9 -57 23 -49 23 -71 27 -141 26 l-84 -1 -79 53 c-103 69 -247
131 -499 216 -234 78 -356 106 -414 95 -81 -15 -123 -98 -133 -264 -5 -80 -8
-93 -22 -89 -9 3 -47 17 -86 31 -97 34 -260 66 -342 66 -129 0 -176 -51 -196
-215 l-12 -95 -110 -3 c-80 -3 -120 -8 -147 -21 -46 -22 -101 -82 -129 -139
l-21 -42 -66 32 c-138 67 -149 61 -162 -97 -17 -202 -16 -200 -53 -200 -18 0
-57 9 -86 21 -61 23 -89 17 -115 -23 -15 -24 -56 -184 -56 -220 0 -18 -2 -19
-16 -7 -37 30 -114 154 -134 214 -25 77 -40 241 -29 325 15 109 91 354 138
448 16 31 59 97 95 147 69 93 76 113 50 139 -34 34 -98 11 -248 -89 -200 -133
-277 -197 -410 -336 -112 -118 -173 -208 -229 -339 -82 -194 -113 -360 -104
-565 7 -156 34 -281 81 -378 40 -82 174 -254 265 -341 l62 -59 -35 -71 c-42
-87 -69 -172 -98 -319 -19 -93 -23 -145 -23 -307 0 -188 1 -198 29 -288 29
-91 52 -122 78 -106 8 5 8 -12 2 -62 -5 -38 -9 -159 -9 -269 0 -295 30 -488
85 -555 24 -29 32 -33 47 -24 10 6 22 30 26 55 32 172 70 294 88 284 5 -4 9
-24 9 -46 0 -108 96 -587 140 -699 11 -30 35 -93 52 -140 17 -47 55 -134 86
-195 30 -60 72 -153 93 -205 21 -52 44 -96 52 -98 15 -3 27 26 27 69 0 25 24
47 33 31 3 -4 17 -50 32 -102 34 -120 71 -208 125 -296 24 -38 61 -100 83
-139 51 -90 68 -110 79 -93 4 7 5 29 1 48 -6 32 1 27 108 -84 63 -65 122 -131
132 -147 11 -16 21 -29 24 -29 3 0 2 30 -2 66 -8 76 -10 76 73 5 56 -48 161
-195 230 -322 73 -132 81 -169 91 -399 10 -212 24 -296 71 -406 l21 -48 -24
-45 c-14 -26 -32 -71 -42 -101 -19 -60 -114 -292 -122 -300 -3 -3 -3 24 0 60
8 80 -5 114 -48 118 -17 2 -36 9 -43 15 -20 16 -3 39 -263 -348 -106 -157
-213 -295 -229 -295 -27 0 -54 121 -66 293 -6 88 -10 100 -30 113 -18 12 -27
13 -44 4 -27 -14 -37 -40 -66 -180 -14 -63 -26 -116 -28 -118 -2 -2 -16 50
-31 115 -50 214 -106 284 -174 218 -42 -40 -203 -157 -236 -170 -73 -30 -71
-31 -107 37 -47 89 -97 113 -191 93 l-39 -8 27 52 c14 29 46 113 71 187 47
143 65 184 122 277 33 54 35 61 24 91 -7 18 -12 46 -12 63 0 40 -31 68 -65 59
-48 -12 -249 -214 -348 -348 -23 -32 -45 -58 -49 -58 -23 -1 2 155 63 398 53
211 54 237 19 272 -26 26 -65 25 -134 -1 -31 -12 -59 -20 -61 -17 -3 2 11 45
31 94 50 122 63 194 71 371 6 142 5 153 -15 187 -18 30 -19 41 -11 66 13 37
-9 80 -42 80 -48 0 -125 -67 -193 -170 l-36 -55 0 51 c0 230 -63 482 -160 644
-21 36 -55 106 -74 155 -19 50 -60 149 -91 220 -72 164 -94 264 -102 465 -3
85 -10 163 -15 173 -16 31 -52 17 -60 -23 -4 -19 -23 -102 -43 -185 -19 -82
-35 -158 -35 -167 0 -33 -17 -18 -23 20 -48 301 -30 573 62 939 22 87 49 210
61 273 12 63 35 176 51 250 30 134 30 137 27 400 -3 265 -3 265 -25 268 -17 3
-24 -3 -29 -25 -22 -100 -49 -184 -95 -291 -28 -68 -53 -121 -55 -119 -6 5 52
224 89 338 19 57 72 190 117 294 45 105 104 243 131 308 26 64 66 143 87 175
25 36 54 104 82 187 23 72 53 156 66 187 32 76 97 311 129 458 26 124 24 161
-10 174 -28 10 -35 7 -66 -26 -28 -30 -26 -24 21 72 146 294 286 475 493 637
54 42 105 86 113 97 8 12 76 73 152 136 103 87 138 122 140 142 3 21 -2 28
-24 35 -22 7 4 16 162 52 416 94 545 136 559 181 10 33 145 69 320 86 83 7
194 21 248 31 l98 16 72 -36 c40 -20 128 -56 197 -80 221 -79 259 -96 446
-203 118 -68 156 -77 174 -44 16 29 2 48 -86 116 -133 103 -288 230 -304 249
-10 13 3 8 40 -13 30 -18 114 -62 185 -99z m-117 -678 c159 -38 501 -159 635
-226 192 -96 426 -310 572 -524 40 -59 23 -9 -32 95 -58 108 -92 157 -171 248
-35 40 -61 76 -58 79 19 20 256 -118 360 -210 59 -52 165 -183 229 -282 14
-22 42 -85 63 -140 31 -85 37 -112 37 -180 0 -44 -5 -105 -11 -135 -6 -30 -13
-81 -16 -112 -5 -67 9 -77 43 -29 27 37 81 183 89 240 6 37 9 42 19 29 23 -28
42 -96 58 -215 9 -65 29 -187 45 -270 17 -84 30 -181 30 -216 0 -35 4 -77 10
-93 5 -16 14 -48 20 -71 13 -52 42 -58 64 -15 16 32 46 168 47 221 1 32 3 29
15 -24 8 -33 28 -105 44 -160 23 -80 30 -128 35 -244 7 -137 6 -144 -11 -137
-135 53 -228 -36 -310 -299 -28 -89 -28 -92 -29 -370 -1 -292 -28 -1052 -45
-1285 -16 -216 -110 -551 -252 -898 -33 -81 -77 -199 -99 -262 -21 -63 -45
-120 -52 -126 -23 -23 -391 -138 -469 -148 -79 -9 -305 12 -406 39 -67 18
-113 38 -165 71 -117 77 -162 94 -243 94 -63 0 -74 -3 -112 -31 -51 -38 -66
-64 -81 -150 -11 -56 -10 -75 4 -129 19 -74 70 -155 128 -205 38 -33 66 -45
139 -60 44 -9 61 -46 66 -142 4 -81 4 -85 -14 -75 -11 5 -35 12 -55 16 -100
18 -354 114 -502 189 -134 67 -173 93 -252 163 -51 46 -113 107 -137 135 -80
97 -150 168 -207 211 -31 23 -82 61 -114 85 -31 24 -62 43 -67 43 -7 0 -8 -13
-4 -35 4 -22 2 -35 -5 -35 -21 0 -149 191 -197 293 l-22 49 -12 -36 c-6 -20
-15 -38 -20 -41 -11 -7 -74 111 -104 195 -13 36 -48 158 -76 270 -51 196 -62
230 -81 230 -8 0 -24 -75 -34 -162 -4 -32 -10 -60 -14 -63 -9 -5 -69 119 -106
220 -23 63 -55 186 -100 380 -18 77 -35 163 -65 330 -30 173 -57 295 -78 355
-16 46 -23 56 -45 58 -21 3 -30 -5 -54 -45 -15 -26 -42 -83 -60 -127 -36 -89
-29 -97 -55 69 -21 141 -15 406 15 600 15 94 31 186 37 205 5 19 10 54 10 76
0 87 -59 55 -117 -64 l-38 -77 -3 55 c-6 102 27 451 53 557 20 85 50 178 61
192 2 2 36 -13 76 -35 69 -36 78 -38 183 -42 192 -7 298 29 395 134 90 97 131
240 132 447 0 145 -4 156 -73 176 -22 7 -68 30 -102 51 -34 21 -81 51 -105 66
-32 19 -41 31 -36 43 3 9 18 65 33 124 l26 109 35 -7 c19 -4 58 -10 85 -14
l50 -6 3 -47 c2 -27 7 -48 11 -48 25 0 73 188 86 343 4 42 10 77 12 77 3 0 22
-13 42 -29 108 -85 268 -167 287 -148 11 10 -45 85 -88 117 -24 19 -47 37 -51
41 -19 16 39 92 90 118 42 21 173 32 263 21 100 -12 142 -23 228 -57 35 -14
66 -23 68 -20 10 9 -35 85 -62 106 -24 19 -77 38 -158 56 -28 6 -28 7 -22 58
11 83 26 134 47 156 16 17 32 21 88 21 134 0 333 -49 446 -109 66 -35 209
-137 353 -252 35 -28 67 -49 71 -47 15 6 -82 142 -149 209 -36 36 -90 82 -121
103 -67 44 -73 63 -58 191 9 84 21 128 41 152 14 17 68 16 146 -2z m-1957 -93
c-61 -104 -151 -381 -173 -531 -22 -157 14 -344 93 -478 57 -97 189 -220 309
-290 58 -33 115 -64 128 -68 21 -6 22 -12 22 -98 0 -175 -32 -293 -101 -371
-63 -72 -113 -96 -217 -106 -142 -13 -213 -3 -282 39 -86 52 -201 160 -292
274 -146 184 -182 295 -182 567 1 145 4 177 27 262 32 121 84 249 138 342 58
98 277 315 429 423 63 45 118 82 122 83 4 0 -5 -21 -21 -48z m-827 -194 c-4
-7 -27 -39 -52 -71 -68 -90 -120 -179 -197 -343 -39 -83 -84 -167 -99 -187
-21 -27 -27 -44 -22 -61 13 -52 57 -42 173 40 34 24 64 44 66 44 9 0 -60 -254
-93 -348 -17 -48 -51 -143 -74 -212 -49 -142 -64 -175 -114 -245 -77 -108
-311 -612 -400 -860 -27 -75 -62 -282 -62 -365 0 -70 32 -156 53 -143 7 4 20
8 30 8 25 2 25 3 109 200 l73 169 3 -111 c2 -104 0 -122 -43 -285 -24 -95 -60
-216 -79 -268 -46 -129 -93 -308 -106 -405 -18 -134 -24 -520 -10 -631 13
-108 42 -239 65 -294 8 -19 24 -73 35 -120 22 -90 41 -116 70 -100 15 8 18 33
23 187 3 98 12 203 20 233 l13 55 13 -82 c19 -129 37 -188 101 -328 71 -157
118 -275 135 -335 7 -25 29 -81 48 -126 20 -44 48 -125 63 -180 24 -88 27
-122 32 -306 l4 -208 36 -22 35 -22 45 50 c25 27 67 81 93 121 27 39 53 74 58
78 6 3 16 -5 22 -17 13 -24 15 -222 3 -326 -6 -48 -9 -53 -28 -49 -45 11 -167
57 -218 83 -29 15 -84 37 -123 50 -109 35 -139 50 -261 131 -192 127 -359 320
-469 540 -98 196 -152 381 -162 553 -8 133 -13 150 -53 150 -46 0 -53 -31 -40
-160 21 -209 64 -362 157 -560 45 -95 188 -320 250 -394 31 -37 29 -49 -47
-276 -92 -275 -92 -271 -85 -800 6 -421 16 -693 31 -831 l6 -55 -118 -12 c-66
-7 -138 -15 -161 -19 l-43 -6 -2 54 c-1 30 -3 119 -4 199 -4 284 -96 831 -199
1195 -23 83 -48 175 -55 205 -7 30 -38 123 -70 205 -104 275 -149 408 -216
640 -108 375 -107 369 -164 757 -22 149 -2 995 30 1278 27 242 49 361 114 615
54 214 144 458 267 727 63 138 88 178 160 253 32 33 80 88 106 122 121 157
303 360 405 455 61 57 148 141 192 187 128 132 501 436 691 563 47 31 48 32
39 16z m4682 -114 c50 -20 231 -128 292 -174 119 -90 246 -291 294 -465 32
-116 32 -380 0 -508 -29 -116 -64 -205 -119 -297 -51 -87 -139 -210 -150 -210
-5 0 -18 33 -31 73 -24 76 -76 174 -142 267 -22 30 -40 63 -40 72 0 9 -18 87
-41 174 l-40 157 40 39 c66 66 134 264 134 390 0 56 -6 79 -37 143 -20 43 -64
114 -99 159 -145 186 -156 219 -61 180z m78 -2722 c46 -209 115 -369 193 -449
31 -31 46 -55 44 -68 -14 -90 -221 -408 -331 -510 l-33 -30 6 25 c14 53 37
492 46 850 7 250 14 392 23 425 l13 50 6 -85 c3 -47 18 -140 33 -208z m-6858
-636 c-3 -62 -10 -124 -15 -137 -6 -13 -40 -107 -77 -209 -120 -334 -134 -368
-214 -537 -34 -70 -73 -152 -87 -181 -14 -30 -53 -87 -87 -127 -33 -41 -74
-93 -89 -115 -23 -34 -31 -40 -42 -30 -22 18 -18 35 13 72 108 124 335 523
406 713 25 66 128 424 167 578 12 48 24 87 26 87 3 0 2 -51 -1 -114z m-655
-1417 c17 -12 45 -22 62 -23 29 -1 33 -6 50 -56 36 -109 0 -226 -101 -332 -50
-53 -93 -77 -79 -45 53 120 97 234 95 245 -2 8 -44 -30 -96 -87 -51 -55 -127
-125 -170 -155 -86 -61 -219 -133 -228 -124 -3 3 30 48 73 100 43 51 89 108
101 126 l23 32 -23 0 c-33 0 -271 -38 -348 -55 -68 -15 -177 -18 -220 -6 -22
6 -16 10 45 30 92 31 352 134 407 162 111 56 230 133 288 187 60 55 66 58 78
41 7 -10 26 -28 43 -40z m5746 -541 c54 -36 107 -70 119 -76 67 -36 409 -78
556 -69 61 4 113 15 175 37 190 67 190 67 177 7 -4 -22 -33 -58 -88 -113 -69
-68 -89 -83 -131 -93 -27 -6 -91 -27 -141 -47 -101 -38 -132 -65 -243 -212
-71 -93 -98 -106 -205 -97 -44 3 -92 11 -106 16 -24 9 -25 13 -25 97 0 78 -3
93 -30 142 -32 59 -67 83 -139 95 -43 8 -98 52 -141 115 -25 36 -28 50 -29
118 -1 59 3 84 17 105 43 67 104 60 234 -25z m1032 -324 c-45 -127 -71 -252
-104 -502 -40 -295 -40 -294 -176 -615 -49 -115 -89 -212 -89 -215 0 -4 -11
-23 -24 -42 -13 -19 -26 -49 -30 -66 -9 -41 -26 -55 -117 -103 -118 -60 -290
-79 -334 -35 -9 10 -15 34 -15 63 0 62 -18 158 -36 193 -14 27 -13 30 28 80
84 103 243 374 304 518 15 36 35 98 45 139 17 67 24 81 77 135 32 34 98 107
146 163 65 77 329 340 343 343 1 0 -7 -25 -18 -56z m-349 -131 c-1 -5 -13 -24
-28 -44 -15 -20 -44 -59 -65 -86 -20 -28 -47 -57 -60 -65 -28 -18 -90 -40 -85
-30 9 21 99 132 136 170 48 48 103 77 102 55z m-1350 -59 c30 -15 80 -35 110
-45 30 -10 107 -36 170 -59 146 -52 326 -105 410 -120 36 -6 89 -15 119 -20
30 -6 79 -10 110 -10 31 -1 66 -6 79 -13 21 -12 16 -16 -80 -57 -92 -40 -111
-44 -178 -44 -78 1 -98 6 -275 79 -163 67 -318 146 -432 221 -105 68 -132 94
-100 94 6 0 37 -12 67 -26z m51 -214 c46 -24 120 -63 164 -88 80 -44 202 -98
345 -151 147 -55 250 -50 424 23 l106 45 -16 -37 c-32 -78 -396 -695 -369
-627 46 116 58 167 63 261 5 106 -10 165 -45 178 -22 9 -26 1 -14 -23 17 -31
-4 -152 -44 -243 -34 -80 -155 -291 -162 -284 -2 2 3 41 11 86 18 94 21 233 6
311 -12 60 -40 123 -55 121 -6 -1 -10 -68 -11 -175 0 -147 -4 -183 -23 -247
-26 -89 -90 -258 -99 -264 -4 -2 -6 60 -4 139 5 197 -34 391 -110 558 -50 109
-66 84 -37 -55 11 -51 22 -145 25 -208 l5 -115 -44 80 c-24 44 -69 117 -100
162 -136 199 -237 492 -222 641 l7 63 57 -54 c32 -29 96 -73 142 -97z m-2184
-57 c-2 -16 -23 -98 -45 -183 -70 -269 -81 -423 -32 -475 25 -26 58 -32 90
-15 10 6 58 61 107 123 93 119 235 266 241 249 2 -6 -18 -52 -43 -102 -25 -51
-66 -152 -91 -226 -45 -136 -81 -219 -115 -263 -27 -34 -24 -59 11 -79 30 -17
31 -18 25 -77 -12 -122 -16 -137 -33 -130 -25 10 -240 27 -277 23 -43 -5 -41
-11 -56 219 -11 184 -7 806 7 871 5 24 12 32 28 32 11 1 53 14 91 29 91 38 98
38 92 4z m1503 -1154 c-100 -255 -137 -448 -126 -664 3 -66 9 -136 12 -156 l6
-37 -54 -7 c-29 -4 -64 -12 -78 -18 -46 -18 -228 -9 -300 15 -36 11 -70 22
-77 24 -8 2 -2 32 18 95 32 98 40 179 21 201 -12 15 -5 428 8 428 4 0 15 -18
25 -41 24 -52 56 -75 84 -60 11 6 22 19 25 28 4 15 24 121 27 142 0 3 7 -14
14 -39 19 -59 85 -154 111 -158 11 -2 33 7 48 19 40 31 161 179 226 275 30 45
56 81 57 80 1 -1 -20 -58 -47 -127z m1846 -130 c-33 -163 -46 -264 -46 -356 0
-88 -14 -114 -87 -162 -36 -24 -58 -31 -97 -31 -28 0 -98 -7 -156 -15 -164
-22 -154 -25 -146 43 4 31 29 168 56 305 28 136 50 263 50 281 0 44 12 51 47
29 22 -15 49 -18 148 -18 113 0 124 2 185 31 36 17 66 27 68 23 2 -4 -8 -63
-22 -130z"/>
<path d="M5846 6982 c-3 -5 4 -22 14 -40 16 -26 33 -35 109 -58 86 -25 115
-44 72 -44 -11 0 -56 -12 -101 -26 -71 -22 -89 -33 -150 -90 -125 -118 -227
-305 -290 -526 -74 -267 -92 -491 -52 -648 31 -120 130 -317 190 -377 103
-105 300 -183 461 -183 100 0 172 23 264 84 108 72 140 108 198 223 l54 108 6
-135 c8 -170 22 -284 60 -481 28 -148 38 -180 119 -364 19 -43 -3 226 -30 380
-38 210 -47 297 -60 555 -6 118 -13 221 -15 228 -3 7 3 52 12 100 14 69 17
138 16 332 -1 227 -3 253 -27 355 -72 299 -245 484 -512 544 -49 12 -125 32
-169 46 -79 25 -159 33 -169 17z m29 -381 c-35 -101 -47 -211 -42 -381 7 -199
27 -303 92 -467 50 -127 79 -167 220 -309 75 -75 123 -106 199 -125 25 -6 46
-13 46 -15 0 -2 -11 -28 -25 -57 -26 -54 -95 -118 -158 -144 -80 -35 -285 2
-390 70 -88 56 -189 163 -226 239 -17 34 -43 108 -57 163 -24 92 -26 111 -21
235 10 256 107 546 226 676 25 28 68 77 95 108 26 31 50 55 52 53 2 -2 -3 -23
-11 -46z"/>
</g>
</svg>
