<?xml version="1.0" encoding="utf-8"?>
<!-- Generator: Adobe Illustrator 16.0.0, SVG Export Plug-In . SVG Version: 6.00 Build 0)  -->
<!DOCTYPE svg PUBLIC "-//W3C//DTD SVG 1.1//EN" "http://www.w3.org/Graphics/SVG/1.1/DTD/svg11.dtd">
<svg version="1.1" xmlns="http://www.w3.org/2000/svg" xmlns:xlink="http://www.w3.org/1999/xlink" x="0px" y="0px" width="958.6px"
	 height="408.5px" viewBox="0 0 958.6 408.5" enable-background="new 0 0 958.6 408.5" xml:space="preserve">
<g id="Layer_1">
</g>
<g id="Sky">
	<path fill="#E6E6E6" d="M958.6,319.1c0,140.1-214.6,73.8-479.3,73.8C214.6,392.8,0,364.1,0,319.1C0,142.9,214.6,0,479.3,0
		C744,0,958.6,142.9,958.6,319.1z"/>
	<path fill="none" d="M275.3,30.3c-0.6,0.2-1.3,0.4-1.9,0.6c0.3,0.4,0.6,0.9,0.9,1.3C274.7,31.5,275,30.9,275.3,30.3z"/>
	<path fill="none" d="M895.9,194.2c-11.8,9.7-26.8,13.3-40,8c-12.6-5-20.7-16.8-23.2-31.1c-1.6,0.1-3.2-0.2-4.7-0.8
		c-3.4-1.4-5.9-4.3-7.5-8.5c-11.8,9.1-27.4,12.1-41.6,6.4c-17.6-7-27.6-25.1-26.2-44.1c-5.1-1.8-10-4.3-14.6-7.6
		c-17.1,25-49.2,41.9-86,41.9c-26.1,0-49.9-8.5-67.6-22.4c-1.6,1.2-3.2,2.2-5.1,3c-11.4,5.2-24.4,2.5-33.2-6
		c-1.2,1.6-2.7,2.9-4.5,3.7c-7.1,3.3-16.9-1.5-25.9-11.3c-3.6,5.6-8.6,10.1-14.8,13c-5.9,2.7-12.2,3.6-18.6,2.9
		c-3.9,15.4-17.4,30.8-37,39.8c-10.8,5-22,7.3-32.2,7.2c-16.3,17.7-37.3,28.4-60.3,28.4c-19.6,0-37.7-7.8-52.7-21
		c-1.3,0.5-2.8,0.9-4.2,1.1c-5.4,0.7-10.6-1-15-4.4c-4.5,4.6-10.4,7.7-17.1,8.6c-12.4,1.6-24.1-4.9-29.9-15.5
		c-1.7,1.2-3.5,2-5.4,2.2c-5.5,0.7-11-2.8-15.8-9.2c-14.6,35.1-38.4,58-65.1,58c-16.7,0-32.2-8.9-45-24.1c-0.1-0.1-0.2-0.2-0.4-0.3
		c-1.2,1.6-2.7,2.9-4.5,3.7c-7.1,3.3-16.9-1.5-25.9-11.3c-3.6,5.6-8.6,10.1-14.8,13c-5.9,2.7-12.2,3.6-18.6,2.9
		c-3.3,13.2-13.9,26.5-29.2,35.7C3.2,276.5,0,297.6,0,319.1c0,45,214.6,73.8,479.3,73.8c264.7,0,479.3,66.3,479.3-73.8
		c0-47.2-15.4-92.1-43.1-132.4C909.6,190.7,903,193.4,895.9,194.2z"/>
	<path fill="#CCCCCC" stroke="#808080" stroke-width="3" stroke-miterlimit="10" d="M555.7,94.5c-6.2,1.4-12.7,2.2-19.4,2.2
		c-26,0-48.7-11.4-61.5-28.5c-7.2,13.9-17.2,23.8-28.5,27.2c0,0.4,0,0.9,0,1.3c0,36.8-12.8,69.7-33.1,91.8
		c10.2,0.1,21.3-2.2,32.2-7.2c19.5-9,33.1-24.4,37-39.8c6.3,0.7,12.7-0.2,18.6-2.9c6.2-2.8,11.2-7.4,14.8-13
		c9.1,9.9,18.8,14.6,25.9,11.3c1.8-0.8,3.3-2.1,4.5-3.7c8.7,8.4,21.8,11.2,33.2,6c1.8-0.8,3.5-1.9,5.1-3
		C570.5,125.2,560.2,110.8,555.7,94.5z"/>
	<path fill="#CCCCCC" stroke="#808080" stroke-width="3" stroke-miterlimit="10" d="M272,156.4c-6.8,8.7-15.1,13.9-24.1,13.9
		c-10.1,0-19.3-6.5-26.6-17.3c-2.3,9.1-5.2,17.7-8.5,25.7c4.8,6.4,10.4,9.9,15.8,9.2c1.9-0.3,3.7-1,5.4-2.2
		c5.8,10.6,17.5,17.2,29.9,15.5c6.7-0.9,12.6-4,17.1-8.6c4.5,3.4,9.7,5.1,15,4.4c1.5-0.2,2.9-0.6,4.2-1.1
		C288.8,185.7,279,172.2,272,156.4z"/>
	<path fill="#CCCCCC" stroke="#808080" stroke-width="3" stroke-miterlimit="10" d="M843.3,155.5c-3.1,2-6.3,3-9.7,3
		c-13.4,0-25.2-17-32.2-42.8c-9.7,7.2-20.7,11.3-32.3,11.3c-5.6,0-11.1-1-16.4-2.8c-1.4,19,8.7,37.1,26.2,44.1
		c14.2,5.7,29.8,2.7,41.6-6.4c1.6,4.1,4.2,7.1,7.5,8.5c1.5,0.6,3.1,0.8,4.7,0.8c2.4,14.2,10.6,26.1,23.2,31.1
		c13.2,5.3,28.1,1.7,40-8c-1.7,0.2-3.5,0.3-5.3,0.3C869.2,194.6,850.8,178.4,843.3,155.5z"/>
	<path fill="#CCCCCC" stroke="#808080" stroke-width="3" stroke-miterlimit="10" d="M38.5,220.6c6.3,0.7,12.7-0.2,18.6-2.9
		c6.2-2.8,11.2-7.4,14.8-13c9.1,9.9,18.8,14.6,25.9,11.3c1.8-0.8,3.3-2.1,4.5-3.7c0.1,0.1,0.2,0.2,0.4,0.3
		c-13-15.4-23.4-37.3-29.5-63.1c0,0,0,0,0,0c-5.2,10.7-12.3,19.1-20.5,23.9C32.8,199.2,18.1,227,9.3,256.2
		C24.6,247,35.2,233.8,38.5,220.6z"/>
	<path fill="#CCCCCC" stroke="#808080" stroke-width="3" stroke-miterlimit="10" d="M102.7,212.6c12.9,15.2,28.3,24.1,45,24.1
		c26.8,0,50.5-22.9,65.1-58c3.3-8,6.2-16.6,8.5-25.7c7.3,10.8,16.5,17.3,26.6,17.3c9,0,17.3-5.1,24.1-13.9
		c7,15.8,16.7,29.3,28.3,39.5c15,13.3,33.2,21,52.7,21c23,0,44-10.7,60.3-28.4c20.2-22,33.1-55,33.1-91.8c0-0.4,0-0.9,0-1.3
		c11.3-3.4,21.3-13.3,28.5-27.2c12.7,17.1,35.5,28.5,61.5,28.5c6.7,0,13.2-0.8,19.4-2.2c-1.7-6.1-2.6-12.4-2.6-18.9
		c0-27.3,15.7-51.5,40-66.6C556.6,3.1,518.5,0,479.3,0c-72.9,0-142.1,10.9-204,30.3c-0.3,0.6-0.7,1.3-1,1.9
		c-0.3-0.4-0.6-0.9-0.9-1.3C190.9,57,121.5,98.4,73.2,149.5C79.3,175.3,89.6,197.2,102.7,212.6z"/>
	<path fill="#CCCCCC" stroke="#808080" stroke-width="3" stroke-miterlimit="10" d="M553.1,75.6c0,6.5,0.9,12.8,2.6,18.9
		c4.5,16.3,14.7,30.7,28.8,41.7c17.7,13.9,41.5,22.4,67.6,22.4c36.8,0,69-16.9,86-41.9c4.6,3.3,9.5,5.8,14.6,7.6
		c5.3,1.8,10.7,2.8,16.4,2.8c11.6,0,22.6-4.1,32.3-11.3c7,25.8,18.8,42.8,32.2,42.8c3.3,0,6.6-1.1,9.7-3c7.5,22.9,25.9,39,47.3,39
		c1.8,0,3.6-0.1,5.3-0.3c7-0.9,13.6-3.5,19.5-7.6C855.2,98.8,736.9,32.4,593.1,9.1C568.9,24.2,553.1,48.4,553.1,75.6z"/>
</g>
</svg>
