<?xml version="1.0" encoding="utf-8"?>
<!-- Generator: Adobe Illustrator 16.0.0, SVG Export Plug-In . SVG Version: 6.00 Build 0)  -->
<!DOCTYPE svg PUBLIC "-//W3C//DTD SVG 1.1//EN" "http://www.w3.org/Graphics/SVG/1.1/DTD/svg11.dtd">
<svg version="1.1" xmlns="http://www.w3.org/2000/svg" xmlns:xlink="http://www.w3.org/1999/xlink" x="0px" y="0px" width="958.6px"
	 height="408.5px" viewBox="0 0 958.6 408.5" enable-background="new 0 0 958.6 408.5" xml:space="preserve">
<g id="Layer_1">
</g>
<g id="Sky">
	<path fill="#88D5EA" d="M958.6,319.1c0,140.1-214.6,73.8-479.3,73.8C214.6,392.8,0,364.1,0,319.1C0,142.9,214.6,0,479.3,0
		C744,0,958.6,142.9,958.6,319.1z"/>
	<path fill="#FFFFFF" stroke="#CCCCCC" stroke-width="3" stroke-miterlimit="10" d="M432.8,93.1c0-0.3,0-0.6,0-1
		c0-9.3,5.7-16.8,12.8-16.8c3.4,0,6.5,1.7,8.8,4.6c1-6.6,5.6-11.7,11.2-11.7c6.2,0,11.3,6.3,11.4,14.2c1.2-0.8,2.6-1.3,4-1.3
		c4.4,0,7.9,3.9,7.9,8.8c0,1.2-0.2,2.2-0.6,3.3c4.5,2.2,7.1,4.9,7.1,7.8c0,7.1-15.7,12.9-35,12.9c-19.3,0-35-5.8-35-12.9
		C425.4,98.1,428.1,95.3,432.8,93.1z"/>
	<path fill="#FFFFFF" stroke="#CCCCCC" stroke-width="3" stroke-miterlimit="10" d="M783.1,147.1c0-0.3,0-0.6,0-1
		c0-9.3-4.1-16.8-9.2-16.8c-2.4,0-4.6,1.7-6.3,4.6c-0.7-6.6-4-11.7-8-11.7c-4.5,0-8.1,6.3-8.1,14.2c-0.8-0.8-1.8-1.3-2.9-1.3
		c-3.1,0-5.6,3.9-5.6,8.8c0,1.2,0.1,2.2,0.4,3.3c-3.2,2.2-5.1,4.9-5.1,7.8c0,7.1,11.2,12.9,25,12.9c13.8,0,25-5.8,25-12.9
		C788.4,152.1,786.4,149.3,783.1,147.1z"/>
	<circle fill="#FFFF00" stroke="#F9D53D" stroke-width="6" stroke-miterlimit="10" cx="340.5" cy="94.9" r="27.1"/>
	<path fill="#FFFFFF" stroke="#CCCCCC" stroke-width="3" stroke-miterlimit="10" d="M455.2,121.3c0-0.6,0-1.1,0-1.7
		c0-16.3-11.5-29.6-25.7-29.6c-6.8,0-13,3.1-17.6,8c-2-11.7-11.3-20.5-22.5-20.5c-12.6,0-22.8,11.2-22.9,25
		c-2.4-1.4-5.2-2.2-8.1-2.2c-8.8,0-15.9,6.9-15.9,15.5c0,2,0.4,4,1.1,5.7c-9,3.8-14.4,8.6-14.4,13.8c0,12.6,31.5,22.8,70.4,22.8
		s70.4-10.2,70.4-22.8C470.1,130,464.5,125.1,455.2,121.3z"/>
	<path fill="#FFFFFF" stroke="#CCCCCC" stroke-width="3" stroke-miterlimit="10" d="M133.8,154.1c0-0.3,0-0.6,0-1
		c0-9.3,5.7-16.8,12.8-16.8c3.4,0,6.5,1.7,8.8,4.6c1-6.6,5.6-11.7,11.2-11.7c6.2,0,11.3,6.3,11.4,14.2c1.2-0.8,2.6-1.3,4-1.3
		c4.4,0,7.9,3.9,7.9,8.8c0,1.2-0.2,2.2-0.6,3.3c4.5,2.2,7.1,4.9,7.1,7.8c0,7.1-15.7,12.9-35,12.9c-19.3,0-35-5.8-35-12.9
		C126.4,159.1,129.1,156.3,133.8,154.1z"/>
	<path fill="#FFFFFF" stroke="#CCCCCC" stroke-width="3" stroke-miterlimit="10" d="M864.7,169.7c0-5-4.6-9.2-11-10.7
		c1.5-1.8,2.4-4.1,2.4-6.6c0-6.1-5.3-11-11.8-11c-3.5,0-6.6,1.4-8.8,3.7c-6-8.4-16-14-27.4-14c-15.3,0-28.1,10-32.1,23.6
		c-14.7,1.5-25.9,10.1-25.9,20.4c0,11.4,13.6,20.7,30.3,20.7c5.3,0,10.3-0.9,14.6-2.6c4,1.7,8.4,2.6,13,2.6c5.4,0,10.5-1.3,15-3.5
		c3.4,2.2,8,3.5,13,3.5c10.7,0,19.3-6,19.3-13.3c0-0.8-0.1-1.6-0.3-2.3C860.8,178.3,864.7,174.3,864.7,169.7z"/>
	<path fill="#FFFFFF" stroke="#CCCCCC" stroke-width="3" stroke-miterlimit="10" d="M335.6,117.1c-0.2-3.2-3.1-6.1-7.7-8
		c1.3-2.3,2-4.9,2-7.7c0-8.5-6.7-15.4-14.9-15.4c-6.3,0-11.8,4.1-13.9,9.8c-3.5-1.1-7.5-1.7-11.7-1.5c-8.8,0.3-16.4,3.6-20.7,8.4
		c-1.7-1.2-4.2-1.9-6.9-1.8c-5,0.2-9,3-8.8,6.4c0.1,1.4,0.8,2.6,2,3.6c-4.9,1-8.3,3.4-8.2,6.2c0.1,2.6,3.3,4.6,7.8,5.5
		c-0.1,0.4-0.2,0.8-0.2,1.3c0.2,4.1,7.1,7.1,15.4,6.8c3.9-0.1,7.3-1,9.9-2.2c3.6,1.1,7.5,1.7,11.7,1.5c3.6-0.1,6.9-0.7,10-1.7
		c3.4,0.8,7.3,1.2,11.4,1C325.7,128.8,335.9,123.3,335.6,117.1z"/>
</g>
</svg>
