<?xml version="1.0" encoding="utf-8"?>
<!-- Generator: Adobe Illustrator 21.0.0, SVG Export Plug-In . SVG Version: 6.00 Build 0)  -->
<svg version="1.1" id="Layer_1" xmlns="http://www.w3.org/2000/svg" xmlns:xlink="http://www.w3.org/1999/xlink" x="0px" y="0px"
	 width="173.4px" height="178.7px" viewBox="0 0 173.4 178.7" style="enable-background:new 0 0 173.4 178.7;" xml:space="preserve"
	>
<style type="text/css">
	.st0{fill:#FFE000;}
</style>
<g>
	<polygon class="st0" points="58.1,117.2 1.1,93.4 54.7,62.6 59.7,1.1 105.5,42.5 165.6,28.2 140.4,84.6 172.5,137.4 111.1,130.8 
		70.8,177.6 	"/>
	<path d="M60.1,2.1L105,42.7l0.4,0.4l0.5-0.1L164.7,29L140,84.2l-0.2,0.5l0.3,0.4l31.5,51.7l-60.1-6.5l-0.5-0.1l-0.3,0.4l-39.4,45.9
		l-12.4-59.2l-0.1-0.5l-0.5-0.2L2.3,93.3l52.5-30.1l0.5-0.3l0-0.5L60.1,2.1 M59.3,0l-5.1,62.3L0,93.4l57.7,24.1l12.9,61.2l40.7-47.4
		l62.2,6.7l-32.5-53.4l25.6-57.1l-60.8,14.4L59.3,0L59.3,0z"/>
</g>
</svg>
